<svg xmlns="http://www.w3.org/2000/svg" width="488.072" height="488.073"><path d="M170.105 367.45a10 10 0 01-10-10V130.623a9.999 9.999 0 0115-8.66l196.438 113.414a9.999 9.999 0 010 17.32L175.105 366.11a9.994 9.994 0 01-5 1.34zm10-219.506V340.13l166.438-96.093-166.438-96.093z"/><path d="M244.036 488.072c-65.185 0-126.467-25.384-172.559-71.478C25.384 370.502 0 309.221 0 244.036c0-65.185 25.384-126.467 71.477-172.56C117.569 25.386 178.851 0 244.036 0c65.186 0 126.468 25.384 172.561 71.476s71.476 107.375 71.476 172.56-25.384 126.467-71.477 172.559c-46.092 46.093-107.374 71.477-172.56 71.477zm0-468.072c-59.842 0-116.103 23.305-158.417 65.62-42.314 42.314-65.618 98.575-65.618 158.417S43.305 360.14 85.619 402.454c42.315 42.315 98.575 65.618 158.417 65.618 59.843 0 116.104-23.304 158.418-65.618s65.618-98.575 65.618-158.417-23.303-116.102-65.618-158.417S303.879 20 244.036 20z"/></svg>