<svg height="512" viewBox="0 0 64 64" width="512" xmlns="http://www.w3.org/2000/svg"><path d="M61 49h-1.28L58 43.82a26.028 26.028 0 00-23-25.64V14h2.5a3.5 3.5 0 000-7h-11a3.5 3.5 0 000 7H29v4.18A26.028 26.028 0 006 43.82L4.28 49H3a1 1 0 00-1 1v6a1 1 0 001 1h58a1 1 0 001-1v-6a1 1 0 00-1-1zM26.5 12a1.5 1.5 0 010-3h11a1.5 1.5 0 010 3zm6.5 2v4.03a16.446 16.446 0 00-2 0V14zm-1 6a24.017 24.017 0 0123.97 23H12.05A20.013 20.013 0 0132 24v-2a22.014 22.014 0 00-21.97 21h-2A24.017 24.017 0 0132 20zM7.72 45h48.56l1.33 4H6.39zM60 55H4v-4h56zM5 25h4v2H5z"/><path d="M11 19h2v4h-2zm-4.66 2.755l1.414-1.414 2.828 2.828-1.414 1.414zM55 25h4v2h-4zm-4-6h2v4h-2zm2.406 4.176l2.828-2.828 1.414 1.414-2.828 2.828z"/></svg>