<svg xmlns="http://www.w3.org/2000/svg" viewBox="0 0 512 512"><path d="M469.333 170.667H106.667c-19.781 0-36.667 13.292-41.375 32.427-.021.073-.052.156-.073.229L2.771 414.177a10.691 10.691 0 00.333 7C9.646 437.469 25.167 448 42.667 448h362.667c19.104 0 35.719-12.646 40.938-30.948.094-.229.177-.458.25-.698l63.375-189.833a10.47 10.47 0 00.438-1.854C511.448 220.719 512 217 512 213.333c0-23.531-19.135-42.666-42.667-42.666z"/><path d="M9.135 285.396a9.731 9.731 0 001.542.115c4.656 0 8.865-3.052 10.219-7.635l23.771-80.271c.031-.125.063-.24.094-.365 7.292-28.208 32.74-47.906 61.906-47.906h328.708c3.469 0 6.719-1.688 8.719-4.521a10.688 10.688 0 001.333-9.719c-6.042-17-22.156-28.427-40.094-28.427h-198.25l-39.542-39.542c-2-2-4.708-3.125-7.542-3.125H42.667C19.135 64 0 83.135 0 106.667v168.177c0 5.302 3.896 9.791 9.135 10.552z"/></svg>