<svg xmlns="http://www.w3.org/2000/svg" viewBox="0 0 512 512"><path d="M375.467 22.164c-60.061 0-99.769 32.795-119.467 54.493-19.697-21.696-59.406-54.493-119.467-54.493C54.581 22.164 0 98.373 0 183.744c0 63.878 32.211 188.323 247.931 304.064a17.066 17.066 0 0016.138 0C479.79 372.066 512 247.622 512 183.744c0-87.352-56.197-161.58-136.533-161.58zM256 453.348C152.381 396.376 34.133 301.45 34.133 183.744c0-65.477 39.319-127.446 102.4-127.446 47.857 0 87.452 29.344 104.973 56.973 6.679 10.743 22.365 10.732 29.017-.046.352-.569 35.938-56.928 104.944-56.928 63.551 0 102.4 62.591 102.4 127.446 0 117.709-118.245 212.632-221.867 269.605z"/></svg>