<svg height="512" viewBox="0 0 512.065 512.065" width="512" xmlns="http://www.w3.org/2000/svg"><path d="M487.031 25.054C470.875 8.897 449.393 0 426.544 0s-44.33 8.897-60.486 25.054L44.505 346.606.02 512.065l165.458-44.485 321.553-321.553c33.353-33.352 33.352-87.62 0-120.973zM133.003 400.295l187.789-187.789-21.213-21.213-187.788 187.789-28.667-28.667 209.289-209.29 78.548 78.548L161.67 428.962zm180.622-280.383l27.492-27.492 78.548 78.548-27.492 27.492zM67.374 377.092l67.62 67.62-92.485 24.865zm398.444-252.277l-24.94 24.94-78.548-78.548 24.94-24.94c21.655-21.655 56.891-21.655 78.548 0 21.656 21.656 21.656 56.892 0 78.548z"/></svg>