<?xml version="1.0"?>
<svg xmlns="http://www.w3.org/2000/svg" xmlns:xlink="http://www.w3.org/1999/xlink" version="1.1" id="Capa_1" x="0px" y="0px" viewBox="0 0 480 480" style="enable-background:new 0 0 480 480;" xml:space="preserve" width="512px" height="512px"><g><g>
	<g>
		<path d="M455.751,24.269C440.215,8.727,419.138-0.003,397.162,0c-21.978-0.058-43.067,8.676-58.568,24.256L34.898,328    c-1.048,1.054-1.784,2.378-2.128,3.824l-32.568,138.4c-0.981,4.308,1.716,8.596,6.024,9.576c0.58,0.132,1.173,0.199,1.768,0.2    c0.616-0.002,1.231-0.072,1.832-0.208l138.4-32.568c1.448-0.34,2.772-1.077,3.824-2.128L455.73,141.4    C488.081,109.061,488.09,56.62,455.751,24.269z M301.042,84.44l21.256,21.248L94.226,333.76H51.73L301.042,84.44z M18.738,461.248    l10.752-45.672c8.485,1.611,16.266,5.802,22.28,12c6.46,6.184,10.918,14.162,12.8,22.904L18.738,461.248z M130.242,435.016    L80.154,446.8c-2.567-11.658-8.52-22.297-17.112-30.584c-8.102-8.305-18.497-14.004-29.856-16.368l11.792-50.088h44.56v32.696    c0,4.418,3.582,8,8,8h32.704V435.016z M105.538,374.456v-29.384L333.594,117l29.4,29.4L134.93,374.456H105.538z M146.242,428.264    v-42.496l228.064-228.072l21.256,21.248L146.242,428.264z M406.874,167.632l-26.88-26.896l-67.608-67.6l21.208-21.264    l94.528,94.528L406.874,167.632z M444.418,130.088l-4.984,4.984l-94.52-94.512l4.992-4.992    c26.101-26.099,68.417-26.097,94.516,0.004C470.521,61.673,470.519,103.989,444.418,130.088z" data-original="#000000" class="active-path" data-old_color="#000000" fill="#555555"/>
	</g>
</g><g>
	<g>
		<path d="M445.65,50.344c-3.124-3.123-8.188-3.123-11.312,0c-3.123,3.124-3.123,8.188,0,11.312    c10.113,10.139,10.113,26.549,0,36.688c-3.178,3.07-3.266,8.134-0.196,11.312c3.07,3.178,8.134,3.266,11.312,0.196    c0.067-0.064,0.132-0.13,0.196-0.196C461.996,93.264,461.996,66.737,445.65,50.344z" data-original="#000000" class="active-path" data-old_color="#000000" fill="#555555"/>
	</g>
</g></g> </svg>
